REM DIRINDEX 1\2\6,1\2\7,1\2\8,1\3\9,1\3\10,1\3\11,1\4\12,1\4\13,1\4\14,1\5\15,1\5\16,1\5\17,1\5\18
REM DIRNAME cjc019,folder01,folder02,folder03,folder04,folder05,folder06,folder07,folder08,folder09,folder10,folder11,folder12,folder13,folder14,folder15,folder16,folder17
TITLE ""
FILE "2Q_t_0916-0933.mp3" MP3
  TRACK 01 AUDIO
    TITLE "13:cjc019_3893"
    INDEX 01 00:00:00
  TRACK 02 AUDIO
    TITLE "0:"
    INDEX 01 00:00:72
  TRACK 03 AUDIO
    TITLE "14:cjc019_3894"
    INDEX 01 00:01:52
  TRACK 04 AUDIO
    TITLE "0:"
    INDEX 01 00:05:67
  TRACK 05 AUDIO
    TITLE "13:cjc019_3895"
    INDEX 01 00:06:41
  TRACK 06 AUDIO
    TITLE "0:"
    INDEX 01 00:07:60
  TRACK 07 AUDIO
    TITLE "14:cjc019_3896"
    INDEX 01 00:08:44
  TRACK 08 AUDIO
    TITLE "0:"
    INDEX 01 00:11:52
  TRACK 09 AUDIO
    TITLE "13:cjc019_3897"
    INDEX 01 00:12:24
  TRACK 10 AUDIO
    TITLE "0:"
    INDEX 01 00:13:45
  TRACK 11 AUDIO
    TITLE "14:cjc019_3898"
    INDEX 01 00:14:23
  TRACK 12 AUDIO
    TITLE "0:"
    INDEX 01 00:16:57
  TRACK 13 AUDIO
    TITLE "13:cjc019_3899"
    INDEX 01 00:17:37
  TRACK 14 AUDIO
    TITLE "0:"
    INDEX 01 00:18:64
  TRACK 15 AUDIO
    TITLE "14:cjc019_3900"
    INDEX 01 00:19:46
  TRACK 16 AUDIO
    TITLE "0:"
    INDEX 01 00:21:09
  TRACK 17 AUDIO
    TITLE "13:cjc019_3901"
    INDEX 01 00:21:70
  TRACK 18 AUDIO
    TITLE "0:"
    INDEX 01 00:23:18
  TRACK 19 AUDIO
    TITLE "14:cjc019_3902"
    INDEX 01 00:24:00
  TRACK 20 AUDIO
    TITLE "0:"
    INDEX 01 00:27:57
  TRACK 21 AUDIO
    TITLE "13:cjc019_3903"
    INDEX 01 00:28:33
  TRACK 22 AUDIO
    TITLE "0:"
    INDEX 01 00:29:48
  TRACK 23 AUDIO
    TITLE "14:cjc019_3904"
    INDEX 01 00:30:30
  TRACK 24 AUDIO
    TITLE "0:"
    INDEX 01 00:31:61
  TRACK 25 AUDIO
    TITLE "13:cjc019_3905"
    INDEX 01 00:32:37
  TRACK 26 AUDIO
    TITLE "0:"
    INDEX 01 00:33:64
  TRACK 27 AUDIO
    TITLE "14:cjc019_3906"
    INDEX 01 00:34:45
  TRACK 28 AUDIO
    TITLE "0:"
    INDEX 01 00:38:18
  TRACK 29 AUDIO
    TITLE "13:cjc019_3907"
    INDEX 01 00:38:73
  TRACK 30 AUDIO
    TITLE "0:"
    INDEX 01 00:39:60
  TRACK 31 AUDIO
    TITLE "14:cjc019_3908"
    INDEX 01 00:40:54
  TRACK 32 AUDIO
    TITLE "0:"
    INDEX 01 00:42:55
  TRACK 33 AUDIO
    TITLE "13:cjc019_3909"
    INDEX 01 00:43:35
  TRACK 34 AUDIO
    TITLE "0:"
    INDEX 01 00:44:60
  TRACK 35 AUDIO
    TITLE "14:cjc019_3910"
    INDEX 01 00:45:39
  TRACK 36 AUDIO
    TITLE "0:"
    INDEX 01 00:47:09
  TRACK 37 AUDIO
    TITLE "13:cjc019_3911"
    INDEX 01 00:47:64
  TRACK 38 AUDIO
    TITLE "0:"
    INDEX 01 00:49:25
  TRACK 39 AUDIO
    TITLE "14:cjc019_3912"
    INDEX 01 00:50:03
  TRACK 40 AUDIO
    TITLE "0:"
    INDEX 01 00:53:51
  TRACK 41 AUDIO
    TITLE "13:cjc019_3913"
    INDEX 01 00:54:30
  TRACK 42 AUDIO
    TITLE "0:"
    INDEX 01 00:55:48
  TRACK 43 AUDIO
    TITLE "14:cjc019_3914"
    INDEX 01 00:56:33
  TRACK 44 AUDIO
    TITLE "0:"
    INDEX 01 00:59:51
  TRACK 45 AUDIO
    TITLE "13:cjc019_3915"
    INDEX 01 01:00:27
  TRACK 46 AUDIO
    TITLE "0:"
    INDEX 01 01:01:54
  TRACK 47 AUDIO
    TITLE "14:cjc019_3916"
    INDEX 01 01:02:40
  TRACK 48 AUDIO
    TITLE "0:"
    INDEX 01 01:05:21
  TRACK 49 AUDIO
    TITLE "13:cjc019_3917"
    INDEX 01 01:05:73
  TRACK 50 AUDIO
    TITLE "0:"
    INDEX 01 01:07:14
  TRACK 51 AUDIO
    TITLE "14:cjc019_3918"
    INDEX 01 01:07:72
  TRACK 52 AUDIO
    TITLE "0:"
    INDEX 01 01:09:22
  TRACK 53 AUDIO
    TITLE "13:cjc019_3919"
    INDEX 01 01:10:00
  TRACK 54 AUDIO
    TITLE "0:"
    INDEX 01 01:11:13
  TRACK 55 AUDIO
    TITLE "14:cjc019_3920"
    INDEX 01 01:11:74
  TRACK 56 AUDIO
    TITLE "0:"
    INDEX 01 01:13:36
  TRACK 57 AUDIO
    TITLE "13:cjc019_3921"
    INDEX 01 01:14:16
  TRACK 58 AUDIO
    TITLE "0:"
    INDEX 01 01:15:42
  TRACK 59 AUDIO
    TITLE "14:cjc019_3922"
    INDEX 01 01:16:24
  TRACK 60 AUDIO
    TITLE "0:"
    INDEX 01 01:20:57
  TRACK 61 AUDIO
    TITLE "13:cjc019_3923"
    INDEX 01 01:21:35
  TRACK 62 AUDIO
    TITLE "0:"
    INDEX 01 01:22:37
  TRACK 63 AUDIO
    TITLE "14:cjc019_3924"
    INDEX 01 01:23:15
  TRACK 64 AUDIO
    TITLE "0:"
    INDEX 01 01:27:24
  TRACK 65 AUDIO
    TITLE "13:cjc019_3925"
    INDEX 01 01:28:02
  TRACK 66 AUDIO
    TITLE "0:"
    INDEX 01 01:29:15
  TRACK 67 AUDIO
    TITLE "14:cjc019_3926"
    INDEX 01 01:30:09
  TRACK 68 AUDIO
    TITLE "0:"
    INDEX 01 01:34:24
  TRACK 69 AUDIO
    TITLE "13:cjc019_3927"
    INDEX 01 01:35:08
  TRACK 70 AUDIO
    TITLE "0:"
    INDEX 01 01:36:19
  TRACK 71 AUDIO
    TITLE "14:cjc019_3928"
    INDEX 01 01:36:74
  TRACK 72 AUDIO
    TITLE "0:"
    INDEX 01 01:39:43
